<?xml version="1.0" encoding="utf-8"?>
<!-- Uploaded to: SVG Repo, www.svgrepo.com, Generator: SVG Repo Mixer Tools -->
<svg width="800px" height="800px" viewBox="0 0 1024 1024" class="icon"  version="1.1" xmlns="http://www.w3.org/2000/svg"><path d="M21.333333 810.666667h981.333334v42.666666H21.333333zM533.333333 384h85.333334v341.333333h-85.333334zM661.333333 384h85.333334v341.333333h-85.333334zM789.333333 384h85.333334v341.333333h-85.333334zM405.333333 384h85.333334v341.333333h-85.333334zM277.333333 384h85.333334v341.333333h-85.333334zM149.333333 384h85.333334v341.333333H149.333333zM917.333333 341.333333H106.666667v-64l405.333333-192 405.333333 192zM106.666667 725.333333h810.666666v42.666667H106.666667z" fill="#FF9800" /><path d="M533.333333 341.333333h85.333334v42.666667h-85.333334zM661.333333 341.333333h85.333334v42.666667h-85.333334zM789.333333 341.333333h85.333334v42.666667h-85.333334zM405.333333 341.333333h85.333334v42.666667h-85.333334zM277.333333 341.333333h85.333334v42.666667h-85.333334zM149.333333 341.333333h85.333334v42.666667H149.333333zM64 768h896v42.666667H64z" fill="#EF6C00" /><path d="M512 234.666667m-42.666667 0a42.666667 42.666667 0 1 0 85.333334 0 42.666667 42.666667 0 1 0-85.333334 0Z" fill="#EF6C00" /></svg>